<?xml version="1.0" standalone="no"?>
<!DOCTYPE svg PUBLIC "-//W3C//DTD SVG 20010904//EN" "http://www.w3.org/TR/2001/REC-SVG-20010904/DTD/svg10.dtd">
<svg
    version="1.0"
    xmlns="http://www.w3.org/2000/svg"
    width="200.000000pt"
    height="200.000000pt"
    viewBox="0 0 200.000000 200.000000"
    preserveAspectRatio="xMidYMid meet">

    <g 
        transform="translate(0.000000,200.000000) scale(0.100000,-0.100000)"
        fill="#fff"
        stroke="none">
            <path
                d="M330 1812 c0 -13 29 -32 100 -67 l100 -49 0 -696 0 -696 -100 -49 c-71 -35 -100 -54 -100 -67 0 -17 33 -18 670 -18 l670 0 0 235 c0 228 -1 235 -20 235 -16 0 -37 -34 -102 -165 l-83 -165 -332 0 -333 0 0 325 0 325 209 0 209 0 64 -102 c45 -74 70 -104 86 -106 l22 -3 0 281 0 281 -22 -3 c-15 -2 -39 -33 -82 -103 l-61 -100 -213 -3 -212 -2 0 295 0 295 298 0 298 0 80 -142 c61 -111 84 -144 102 -146 l22 -3 0 215 0 216 -635 0 c-603 0 -635 -1 -635 -18z" />
    </g>
</svg>