<?xml version="1.0" standalone="no"?>
<!DOCTYPE svg PUBLIC "-//W3C//DTD SVG 20010904//EN"
 "http://www.w3.org/TR/2001/REC-SVG-20010904/DTD/svg10.dtd">
<svg version="1.0" xmlns="http://www.w3.org/2000/svg"
 width="833.000000pt" height="833.000000pt" viewBox="0 0 833.000000 833.000000"
 preserveAspectRatio="xMidYMid meet">

<g transform="translate(0.000000,833.000000) scale(0.100000,-0.100000)"
fill="#000000" stroke="none">
<path d="M1660 7610 c-188 -9 -244 -17 -272 -39 -64 -53 72 -146 555 -380
l257 -124 0 -2902 0 -2901 -261 -127 c-312 -151 -465 -237 -525 -292 -50 -47
-54 -68 -21 -90 57 -37 134 -38 2885 -42 l2682 -4 0 768 c-1 800 -9 1103 -32
1149 -35 71 -89 52 -165 -57 -70 -102 -153 -260 -427 -807 l-236 -472 -1385 0
-1385 0 0 1355 0 1355 871 -2 872 -3 192 -306 c203 -325 257 -405 325 -482 51
-57 80 -74 148 -83 l52 -7 0 1172 0 1171 -22 0 c-13 0 -41 -5 -62 -10 -82 -18
-183 -152 -460 -606 l-147 -242 -697 -6 c-383 -3 -781 -8 -884 -10 l-188 -5 0
1230 0 1229 1242 -2 1242 -3 260 -462 c144 -254 287 -502 318 -550 95 -147
153 -193 246 -193 l32 0 0 895 0 895 -2427 -2 c-1336 0 -2498 -4 -2583 -8z"/>
</g>
</svg>
